<svg width="38" height="38" viewBox="0 0 38 38" fill="none" xmlns="http://www.w3.org/2000/svg">
<path fill-rule="evenodd" clip-rule="evenodd" d="M19.0001 0.666748C8.87507 0.666748 0.666733 8.87508 0.666733 19.0001C0.666733 29.1251 8.87507 37.3334 19.0001 37.3334C29.1251 37.3334 37.3334 29.1251 37.3334 19.0001C37.3334 8.87508 29.1251 0.666748 19.0001 0.666748ZM15.3217 13.5117C15.0181 13.1974 14.8501 12.7764 14.8539 12.3394C14.8577 11.9024 15.033 11.4844 15.342 11.1754C15.651 10.8664 16.0691 10.6911 16.5061 10.6873C16.9431 10.6835 17.3641 10.8515 17.6784 11.1551L24.3451 17.8217C24.6575 18.1343 24.833 18.5581 24.833 19.0001C24.833 19.442 24.6575 19.8659 24.3451 20.1784L17.6784 26.8451C17.3641 27.1487 16.9431 27.3167 16.5061 27.3129C16.0691 27.3091 15.651 27.1338 15.342 26.8248C15.033 26.5158 14.8577 26.0977 14.8539 25.6607C14.8501 25.2238 15.0181 24.8027 15.3217 24.4884L20.8101 19.0001L15.3217 13.5117Z" fill="#131316"/>
</svg>
