<svg width="38" height="38" viewBox="0 0 38 38" fill="none" xmlns="http://www.w3.org/2000/svg">
<path fill-rule="evenodd" clip-rule="evenodd" d="M18.9999 0.666748C29.1249 0.666748 37.3333 8.87508 37.3333 19.0001C37.3333 29.1251 29.1249 37.3334 18.9999 37.3334C8.87494 37.3334 0.666603 29.1251 0.666603 19.0001C0.666603 8.87508 8.87494 0.666748 18.9999 0.666748ZM22.6783 13.5117C22.9819 13.1974 23.1499 12.7764 23.1461 12.3394C23.1423 11.9024 22.967 11.4844 22.658 11.1754C22.349 10.8664 21.9309 10.6911 21.4939 10.6873C21.0569 10.6835 20.6359 10.8515 20.3216 11.1551L13.6549 17.8217C13.3425 18.1343 13.167 18.5581 13.167 19.0001C13.167 19.442 13.3425 19.8659 13.6549 20.1784L20.3216 26.8451C20.6359 27.1487 21.0569 27.3167 21.4939 27.3129C21.9309 27.3091 22.349 27.1338 22.658 26.8248C22.967 26.5158 23.1423 26.0977 23.1461 25.6607C23.1499 25.2238 22.9819 24.8027 22.6783 24.4884L17.1899 19.0001L22.6783 13.5117Z" fill="#DEDEE3"/>
</svg>
