<svg width="20" height="19" viewBox="0 0 20 19" fill="none" xmlns="http://www.w3.org/2000/svg">
<path fill-rule="evenodd" clip-rule="evenodd" d="M10 0.333252C4.93754 0.333252 0.833374 4.43742 0.833374 9.49992C0.833374 14.5624 4.93754 18.6666 10 18.6666C15.0625 18.6666 19.1667 14.5624 19.1667 9.49992C19.1667 4.43742 15.0625 0.333252 10 0.333252ZM13.9734 7.94992C14.0465 7.86629 14.1022 7.76887 14.1372 7.66339C14.1722 7.55792 14.1857 7.44651 14.1769 7.33574C14.1682 7.22496 14.1374 7.11705 14.0864 7.01836C14.0353 6.91966 13.965 6.83217 13.8797 6.76104C13.7943 6.6899 13.6956 6.63655 13.5893 6.60414C13.483 6.57172 13.3713 6.56089 13.2608 6.57227C13.1502 6.58366 13.0431 6.61704 12.9457 6.67045C12.8482 6.72385 12.7624 6.79621 12.6934 6.88325L9.11004 11.1824L7.25587 9.32742C7.0987 9.17562 6.8882 9.09162 6.66971 9.09352C6.45121 9.09542 6.2422 9.18306 6.08769 9.33757C5.93318 9.49208 5.84554 9.70109 5.84365 9.91958C5.84175 10.1381 5.92574 10.3486 6.07754 10.5058L8.57754 13.0058C8.65942 13.0876 8.75745 13.1515 8.86539 13.1933C8.97332 13.2351 9.08879 13.254 9.20443 13.2488C9.32007 13.2435 9.43335 13.2142 9.53705 13.1628C9.64075 13.1113 9.73258 13.0388 9.80671 12.9499L13.9734 7.94992Z" fill="#DEDEE3"/>
</svg>
